# xmcd
#
# Track frame offsets:
#   150
#   12513
#   42475
#   60363
#   80263
#   91088
#   105238
#   124050
#   141613
#   159813
#   177275
#   187100
#   201050
#
# Disc length: 2835 seconds
#
# Revision: 0
# Processed by: cddbd v1.4PL0 Copyright (c) Steve Scherf et al.
# Submitted via: CD-Datenbank 4.*
#
DISCID=a40b110d
DTITLE=Gary Wiggins Group - Time for Saxin´
DYEAR=1990
DGENRE=Blues
TTITLE0=I see you comin´
TTITLE1=Since I fell for you
TTITLE2=My funky Valintine
TTITLE3=Yes, I love U 2
TTITLE4=Blues for the Wig
TTITLE5=That´s what you´ re doin´ to me
TTITLE6=Blowin´ the Blues
TTITLE7=Cloudy day
TTITLE8=Sugar
TTITLE9=To Anja
TTITLE10=All over the place
TTITLE11=Bye Bye Blackbird
TTITLE12=Time for Saxin´
EXTD=
EXTT0=
EXTT1=
EXTT2=
EXTT3=
EXTT4=
EXTT5=
EXTT6=
EXTT7=
EXTT8=
EXTT9=
EXTT10=
EXTT11=
EXTT12=
PLAYORDER=
